PathFileType	4	(X/Y/Z)	 2.2Hzlow3min.trc
DataRate	CameraRate	NumFrames	NumMarkers	Units	OrigDataRate	OrigDataStartFrame	OrigNumFrames
200	200	9	43	m	200	751	1000
Frame#	Time	C7			LSH			RSH			MAN			RASI			LASI			HIPR			HIPL			RPSI			LPSI			COX			RTHI1			RTHI2			RTHI3			RTHI4			RLKN			RMKN			RSHA1			RSHA2			RSHA3			RSHA4			RLMAL			RMMAL			RHEEL			RMET5			RMET1			RTOE			LTHI1			LTHI2			LTHI3			LTHI4			LLKN			LMKN			LSHA1			LSHA2			LSHA3			LSHA4			LLMAL			LMMAL			LHEEL			LMET5			LMET1			LTOE			
		X1	Y1	Z1	X2	Y2	Z2	X3	Y3	Z3	X4	Y4	Z4	X5	Y5	Z5	X6	Y6	Z6	X7	Y7	Z7	X8	Y8	Z8	X9	Y9	Z9	X10	Y10	Z10	X11	Y11	Z11	X12	Y12	Z12	X13	Y13	Z13	X14	Y14	Z14	X15	Y15	Z15	X16	Y16	Z16	X17	Y17	Z17	X18	Y18	Z18	X19	Y19	Z19	X20	Y20	Z20	X21	Y21	Z21	X22	Y22	Z22	X23	Y23	Z23	X24	Y24	Z24	X25	Y25	Z25	X26	Y26	Z26	X27	Y27	Z27	X28	Y28	Z28	X29	Y29	Z29	X30	Y30	Z30	X31	Y31	Z31	X32	Y32	Z32	X33	Y33	Z33	X34	Y34	Z34	X35	Y35	Z35	X36	Y36	Z36	X37	Y37	Z37	X38	Y38	Z38	X39	Y39	Z39	X40	Y40	Z40	X41	Y41	Z41	X42	Y42	Z42	X43	Y43	Z43	
751	3.7550	-0.284554	1.399286	-0.527016	-0.256817	1.411459	-0.713861	-0.201073	1.380039	-0.365807	-0.162149	1.317427	-0.544255	-0.187984	0.909747	-0.444723	-0.196289	0.909734	-0.660809	-0.255698	0.945677	-0.402800	-0.265725	0.946243	-0.691938	-0.342186	0.943649	-0.484249	-0.350694	0.938379	-0.591159	-0.350481	0.938453	-0.539346	-0.227636	0.702655	-0.359225	-0.197335	0.651301	-0.353991	-0.141662	0.677317	-0.374162	-0.165364	0.733909	-0.382462	-0.153808	0.406102	-0.370079	-0.156631	0.398716	-0.471064	-0.290767	0.269254	-0.367460	-0.313391	0.236881	-0.378460	-0.265403	0.207014	-0.388075	-0.239424	0.240464	-0.381742	-0.364503	0.102806	-0.405348	-0.343701	0.116381	-0.484958	-0.419010	0.092368	-0.455839	-0.274325	0.034125	-0.375681	-0.220419	0.042323	-0.447915	-0.199244	0.036882	-0.439228	-0.277901	0.699179	-0.734775	-0.251041	0.644969	-0.747393	-0.191650	0.670390	-0.756853	-0.211465	0.725886	-0.746289	-0.165185	0.429261	-0.760750	-0.158290	0.414365	-0.651191	-0.311610	0.267597	-0.756054	-0.327922	0.226448	-0.749785	-0.278297	0.204693	-0.751192	-0.256408	0.238597	-0.756571	-0.352206	0.109149	-0.740932	-0.347245	0.119889	-0.660848	-0.412873	0.102615	-0.698253	-0.259206	0.038017	-0.753221	-0.226631	0.047348	-0.674723	-0.198463	0.037764	-0.679546	
752	3.7600	-0.284534	1.402005	-0.527034	-0.256779	1.414191	-0.713847	-0.200891	1.382822	-0.365922	-0.162182	1.320045	-0.544326	-0.187863	0.912422	-0.444608	-0.195872	0.913016	-0.660807	-0.255727	0.948138	-0.402835	-0.265446	0.949526	-0.691799	-0.342053	0.945979	-0.484262	-0.350456	0.940965	-0.591127	-0.350299	0.940900	-0.539374	-0.227854	0.704993	-0.359511	-0.197700	0.653550	-0.354281	-0.141948	0.679404	-0.374444	-0.165484	0.736063	-0.382730	-0.154713	0.408233	-0.370196	-0.157815	0.400680	-0.471126	-0.291042	0.270734	-0.366978	-0.313549	0.238306	-0.377886	-0.265439	0.208636	-0.387619	-0.239579	0.242193	-0.381333	-0.364100	0.103947	-0.404371	-0.343642	0.117578	-0.484009	-0.418778	0.093738	-0.454547	-0.274070	0.034105	-0.375535	-0.220488	0.042302	-0.447946	-0.199328	0.036863	-0.439453	-0.277993	0.701940	-0.734904	-0.251297	0.647644	-0.747476	-0.191777	0.672831	-0.756707	-0.211415	0.728397	-0.746189	-0.166307	0.431445	-0.760537	-0.160014	0.416416	-0.651003	-0.311910	0.268858	-0.756863	-0.328007	0.227601	-0.750633	-0.278231	0.206129	-0.751749	-0.256534	0.240174	-0.757082	-0.351642	0.110108	-0.742147	-0.347152	0.120913	-0.662102	-0.412466	0.103746	-0.699966	-0.258744	0.037948	-0.753623	-0.226770	0.047366	-0.674825	-0.198638	0.037750	-0.679406	
753	3.7650	-0.284578	1.405167	-0.527040	-0.256800	1.417406	-0.713806	-0.200779	1.386096	-0.366038	-0.162247	1.323186	-0.544379	-0.187648	0.915559	-0.444492	-0.195373	0.916651	-0.660836	-0.255688	0.951041	-0.402868	-0.265082	0.953097	-0.691778	-0.341802	0.948818	-0.484352	-0.350079	0.944019	-0.591193	-0.349986	0.943841	-0.539478	-0.228189	0.707745	-0.359791	-0.198235	0.656182	-0.354559	-0.142369	0.681816	-0.374692	-0.165683	0.738570	-0.382967	-0.156039	0.410722	-0.370276	-0.159387	0.402974	-0.471161	-0.291580	0.272409	-0.366513	-0.313895	0.239889	-0.377301	-0.265635	0.210488	-0.387121	-0.239936	0.244184	-0.380882	-0.363712	0.105204	-0.403378	-0.343588	0.118882	-0.483010	-0.418520	0.095213	-0.453204	-0.273811	0.034096	-0.375380	-0.220573	0.042280	-0.447979	-0.199443	0.036853	-0.439690	-0.278144	0.705119	-0.735036	-0.251680	0.650709	-0.747571	-0.192001	0.675584	-0.756543	-0.211386	0.731240	-0.746059	-0.167868	0.433836	-0.760303	-0.162177	0.418669	-0.650810	-0.312459	0.270132	-0.757602	-0.328299	0.228764	-0.751384	-0.278358	0.207642	-0.752250	-0.256896	0.241832	-0.757576	-0.351125	0.111084	-0.743320	-0.347103	0.121940	-0.663313	-0.412057	0.104886	-0.701602	-0.258311	0.037887	-0.753993	-0.226919	0.047359	-0.674886	-0.198853	0.037729	-0.679275	
754	3.7700	-0.284693	1.408738	-0.527033	-0.256901	1.421080	-0.713736	-0.200766	1.389834	-0.366142	-0.162349	1.326833	-0.544415	-0.187344	0.919122	-0.444394	-0.194796	0.920584	-0.660887	-0.255557	0.954390	-0.402920	-0.264611	0.956935	-0.691853	-0.341435	0.952163	-0.484510	-0.349566	0.947530	-0.591354	-0.349547	0.947270	-0.539644	-0.228632	0.710899	-0.360060	-0.198933	0.659185	-0.354826	-0.142924	0.684552	-0.374909	-0.165962	0.741416	-0.383180	-0.157760	0.413561	-0.370317	-0.161294	0.405605	-0.471170	-0.292333	0.274279	-0.366073	-0.314446	0.241635	-0.376753	-0.265966	0.212567	-0.386588	-0.240473	0.246426	-0.380401	-0.363323	0.106578	-0.402383	-0.343512	0.120300	-0.481981	-0.418199	0.096792	-0.451855	-0.273543	0.034085	-0.375215	-0.220679	0.042247	-0.448004	-0.199584	0.036851	-0.439923	-0.278351	0.708701	-0.735175	-0.252181	0.654155	-0.747657	-0.192320	0.678635	-0.756356	-0.211379	0.734404	-0.745921	-0.169833	0.436449	-0.760047	-0.164715	0.421145	-0.650614	-0.313229	0.271468	-0.758248	-0.328774	0.229983	-0.752021	-0.278644	0.209273	-0.752692	-0.257465	0.243605	-0.758036	-0.350651	0.112116	-0.744415	-0.347021	0.122999	-0.664433	-0.411629	0.106078	-0.703112	-0.257923	0.037829	-0.754297	-0.227064	0.047348	-0.674927	-0.199078	0.037715	-0.679139	
755	3.7750	-0.284886	1.412678	-0.527015	-0.257100	1.425178	-0.713633	-0.200865	1.394021	-0.366232	-0.162485	1.330954	-0.544428	-0.186958	0.923073	-0.444333	-0.194145	0.924777	-0.660955	-0.255304	0.958188	-0.403014	-0.264015	0.961025	-0.692011	-0.340962	0.955996	-0.484736	-0.348930	0.951487	-0.591592	-0.348987	0.951169	-0.539878	-0.229178	0.714431	-0.360316	-0.199775	0.662543	-0.355071	-0.143602	0.687604	-0.375099	-0.166317	0.744596	-0.383375	-0.159849	0.416746	-0.370329	-0.163485	0.408563	-0.471147	-0.293289	0.276394	-0.365657	-0.315115	0.243584	-0.376189	-0.266404	0.214885	-0.386024	-0.241167	0.248938	-0.379887	-0.362922	0.108088	-0.401394	-0.343384	0.121852	-0.480946	-0.417796	0.098504	-0.450552	-0.273283	0.034102	-0.375085	-0.220780	0.042214	-0.448022	-0.199738	0.036858	-0.440149	-0.278614	0.712667	-0.735321	-0.252796	0.657970	-0.747757	-0.192728	0.681976	-0.756154	-0.211399	0.737881	-0.745780	-0.172157	0.439302	-0.759775	-0.167563	0.423876	-0.650414	-0.314195	0.272897	-0.758774	-0.329393	0.231282	-0.752497	-0.279075	0.211029	-0.753072	-0.258210	0.245535	-0.758452	-0.350195	0.113251	-0.745394	-0.346894	0.124104	-0.665451	-0.411159	0.107358	-0.704445	-0.257565	0.037792	-0.754525	-0.227179	0.047328	-0.674941	-0.199298	0.037705	-0.679003	
756	3.7800	-0.285135	1.416933	-0.526993	-0.257399	1.429672	-0.713498	-0.201077	1.398610	-0.366315	-0.162657	1.335517	-0.544418	-0.186495	0.927362	-0.444318	-0.193437	0.929198	-0.661030	-0.254902	0.962428	-0.403163	-0.263274	0.965367	-0.692196	-0.340390	0.960277	-0.485015	-0.348189	0.955853	-0.591888	-0.348322	0.955500	-0.540172	-0.229806	0.718333	-0.360553	-0.200732	0.666256	-0.355286	-0.144386	0.690971	-0.375268	-0.166742	0.748096	-0.383562	-0.162208	0.420272	-0.370286	-0.165899	0.411843	-0.471090	-0.294383	0.278783	-0.365222	-0.315917	0.245741	-0.375662	-0.266933	0.217465	-0.385428	-0.241998	0.251736	-0.379330	-0.362504	0.109757	-0.400437	-0.343165	0.123534	-0.479903	-0.417295	0.100370	-0.449309	-0.273026	0.034132	-0.374989	-0.220874	0.042182	-0.448038	-0.199898	0.036881	-0.440365	-0.278936	0.716992	-0.735480	-0.253515	0.662112	-0.747871	-0.193220	0.685600	-0.755948	-0.211448	0.741659	-0.745647	-0.174794	0.442409	-0.759485	-0.170651	0.426890	-0.650205	-0.315308	0.274477	-0.759180	-0.330130	0.232718	-0.752838	-0.279617	0.212986	-0.753405	-0.259102	0.247690	-0.758806	-0.349738	0.114519	-0.746230	-0.346658	0.125298	-0.666345	-0.410622	0.108767	-0.705573	-0.257227	0.037780	-0.754667	-0.227269	0.047299	-0.674957	-0.199489	0.037727	-0.678887	
757	3.7850	-0.285438	1.421474	-0.526960	-0.257797	1.434524	-0.713334	-0.201395	1.403558	-0.366393	-0.162864	1.340479	-0.544390	-0.185962	0.931944	-0.444349	-0.192679	0.933824	-0.661108	-0.254349	0.967084	-0.403382	-0.262387	0.969963	-0.692382	-0.339733	0.964959	-0.485337	-0.347367	0.960591	-0.592243	-0.347569	0.960210	-0.540500	-0.230500	0.722580	-0.360774	-0.201783	0.670301	-0.355469	-0.145259	0.694641	-0.375416	-0.167226	0.751908	-0.383743	-0.164789	0.424131	-0.370197	-0.168466	0.415423	-0.470994	-0.295597	0.281442	-0.364784	-0.316836	0.248111	-0.375188	-0.267516	0.220310	-0.384793	-0.242927	0.254834	-0.378728	-0.362059	0.111581	-0.399524	-0.342822	0.125371	-0.478861	-0.416672	0.102383	-0.448116	-0.272769	0.034177	-0.374914	-0.220954	0.042140	-0.448044	-0.200071	0.036928	-0.440576	-0.279310	0.721638	-0.735654	-0.254330	0.666547	-0.747997	-0.193793	0.689497	-0.755758	-0.211536	0.745714	-0.745530	-0.177698	0.445781	-0.759185	-0.173923	0.430205	-0.649986	-0.316553	0.276241	-0.759431	-0.330947	0.234296	-0.753026	-0.280228	0.215141	-0.753685	-0.260111	0.250090	-0.759095	-0.349267	0.115945	-0.746918	-0.346300	0.126586	-0.667111	-0.409988	0.110305	-0.706441	-0.256908	0.037803	-0.754721	-0.227293	0.047268	-0.674963	-0.199643	0.037751	-0.678789	
758	3.7900	-0.285787	1.426260	-0.526919	-0.258288	1.439698	-0.713140	-0.201815	1.408825	-0.366473	-0.163106	1.345801	-0.544349	-0.185370	0.936779	-0.444431	-0.191874	0.938636	-0.661184	-0.253647	0.972118	-0.403678	-0.261365	0.974812	-0.692559	-0.339005	0.969979	-0.485678	-0.346479	0.965646	-0.592626	-0.346751	0.965251	-0.540855	-0.231248	0.727146	-0.360976	-0.202907	0.674663	-0.355622	-0.146200	0.698604	-0.375545	-0.167755	0.756014	-0.383917	-0.167539	0.428312	-0.370067	-0.171123	0.419286	-0.470860	-0.296887	0.284387	-0.364334	-0.317816	0.250720	-0.374736	-0.268133	0.223418	-0.384108	-0.243942	0.258231	-0.378078	-0.361569	0.113580	-0.398635	-0.342334	0.127368	-0.477819	-0.415908	0.104553	-0.446995	-0.272504	0.034242	-0.374879	-0.221017	0.042106	-0.448033	-0.200248	0.036972	-0.440759	-0.279735	0.726580	-0.735845	-0.255227	0.671261	-0.748140	-0.194438	0.693639	-0.755573	-0.211662	0.750028	-0.745434	-0.180826	0.449420	-0.758875	-0.177318	0.433823	-0.649753	-0.317927	0.278188	-0.759494	-0.331819	0.236063	-0.753103	-0.280882	0.217536	-0.753922	-0.261211	0.252765	-0.759323	-0.348764	0.117548	-0.747458	-0.345786	0.127990	-0.667753	-0.409252	0.112014	-0.707068	-0.256616	0.037858	-0.754687	-0.227266	0.047227	-0.674967	-0.199749	0.037774	-0.678700	
759	3.7950	-0.286168	1.431252	-0.526873	-0.258859	1.445149	-0.712915	-0.202318	1.414370	-0.366557	-0.163386	1.351433	-0.544299	-0.184731	0.941825	-0.444558	-0.191041	0.943623	-0.661251	-0.252804	0.977486	-0.404054	-0.260222	0.979916	-0.692704	-0.338218	0.975286	-0.486029	-0.345540	0.970978	-0.593031	-0.345877	0.970572	-0.541229	-0.232035	0.731996	-0.361158	-0.204076	0.679315	-0.355743	-0.147189	0.702837	-0.375654	-0.168325	0.760394	-0.384082	-0.170401	0.432791	-0.369897	-0.173819	0.423407	-0.470685	-0.298267	0.287609	-0.363918	-0.318806	0.253597	-0.374282	-0.268765	0.226800	-0.383371	-0.245022	0.261933	-0.377364	-0.361028	0.115782	-0.397804	-0.341676	0.129515	-0.476761	-0.415000	0.106902	-0.445938	-0.272227	0.034326	-0.374876	-0.221060	0.042086	-0.448019	-0.200416	0.037000	-0.440918	-0.280206	0.731772	-0.736043	-0.256187	0.676225	-0.748299	-0.195143	0.698016	-0.755407	-0.211837	0.754575	-0.745334	-0.184138	0.453318	-0.758563	-0.180772	0.437739	-0.649510	-0.319393	0.280342	-0.759373	-0.332717	0.238012	-0.753042	-0.281547	0.220172	-0.754111	-0.262384	0.255721	-0.759500	-0.348209	0.119343	-0.747862	-0.345140	0.129546	-0.668299	-0.408399	0.113903	-0.707464	-0.256337	0.037958	-0.754578	-0.227179	0.047183	-0.674977	-0.199823	0.037804	-0.678650	
